<svg id="Lager_1" data-name="Lager 1" xmlns="http://www.w3.org/2000/svg" viewBox="0 0 595.28 841.89">
<!-- <defs><style>.cls-1{fill:#fff;}</style></defs> -->
<path d="M187.69,271.73c0-8.25.07-16.07-.05-23.88,0-2.12.62-2.68,2.68-2.68q113.88.06,227.77,0h2v26.52H423c18.9,0,37.8,0,56.69-.05,2,0,2.87.54,3.45,2.52,9.45,32.28,7.22,63.48-9,93.19-11.31,20.75-28.31,35.92-48.62,47.58-13.55,7.78-28,13.47-42.87,18a7,7,0,0,0-3.54,2.68c-8.46,13.39-18.28,25.58-30.64,35.6a84.23,84.23,0,0,1-23.74,14c-1.13.41-1.79.82-1.79,2.21q.08,39.82.05,79.67a6.25,6.25,0,0,0,.19,1c.75,0,1.55.13,2.34.13,5,0,10,0,15,0,11.1.09,19,7.88,19.15,19,.09,5,0,10,0,15.32,2.36,0,4.49,0,6.62,0,3.66.06,7.37-.23,11,.31,8.41,1.26,14.86,8.88,15.1,17.41.1,3.39,0,6.79,0,10.33H214.8c.47-5.21.3-10.45,1.52-15.34,1.89-7.49,9.26-12.53,17-12.65,4.16-.06,8.32-.16,12.47,0,2.15.08,2.68-.68,2.61-2.7-.13-4.24-.08-8.49,0-12.74.13-11,7.94-18.84,18.9-18.93,5.65,0,11.3,0,17.21,0,.06-1,.15-1.91.15-2.79,0-25.8,0-51.61.05-77.42a3.24,3.24,0,0,0-2.23-3.48c-16.92-8.05-30.09-20.62-41.58-35.11-3.4-4.29-6.34-9-9.63-13.35a6.35,6.35,0,0,0-3-2.2c-20.39-5.92-39.89-13.81-57.4-26-25.16-17.56-42.13-40.84-48.83-71a120.84,120.84,0,0,1,2.79-63.29c.61-1.92,1.76-1.85,3.21-1.85h59.71Zm-59.87,2.86a9.19,9.19,0,0,0-.58,1.2,117.32,117.32,0,0,0-3.36,55.72c4.9,28.28,19.14,51.09,41.54,68.85,19.08,15.14,41,24.42,64.24,31a6.2,6.2,0,0,1,3.63,2.65c4.42,6.24,8.68,12.63,13.58,18.49,11.2,13.39,24.22,24.61,40.68,31.75v83.51h32.91v-3.11q0-38.08,0-76.16c0-1.5-.37-3.22.25-4.41.44-.82,2.33-.79,3.51-1.3A95.19,95.19,0,0,0,347,469a136,136,0,0,0,30-35.13,8.55,8.55,0,0,1,5.08-3.93c7.25-2.39,14.55-4.7,21.61-7.59,20.56-8.4,39.1-19.92,54-36.64a108.11,108.11,0,0,0,27.66-64.32c1.3-15,.33-29.72-4.05-44.17-.6-2-1.42-2.69-3.58-2.68-19.22.09-38.45.05-57.68.05h-2.87V248.46H190.83v26.13Zm90.37,353.29H390c-.29-3.82-.15-7.46-.93-10.89-1.62-7.17-8.05-11.68-16-11.68H252.05c-6,0-12-.06-18,0-8.19.09-14.66,5.48-15.82,13.45C217.84,621.69,218.19,624.73,218.19,627.88Zm138.73-25.61c0-4.83,0-9.55,0-14.27,0-10.44-6.49-17-17-17-8.57,0-17.14,0-25.71,0-15.48,0-31,0-46.44,0-8.09,0-14.82,4.44-16,11.6-1,6.4-.72,13-1,19.67Z"/>
<path d="M220.9,412.17c-1.77-.65-3.22-1.16-4.66-1.7-19-7.12-36.45-16.65-50.76-31.25-15.62-15.94-24.72-35-26.93-57.27a113.47,113.47,0,0,1,1.19-31.15H191.9C195.27,332.7,202.89,373.45,220.9,412.17ZM142.15,293.62a12.66,12.66,0,0,0-.43,2.08c-.24,7.88-1,15.8-.55,23.64,1.45,22.82,10.6,42.32,26.8,58.47,13.25,13.2,29.17,22.15,46.42,29a3.21,3.21,0,0,0,1,0c-15.82-36.23-22.84-74.28-26.18-113.17Z"/>
<path d="M389,411.3c16.9-38.57,23.71-79.1,26.84-120.52.95,0,1.68-.12,2.42-.12,15.73,0,31.46,0,47.19,0,1.95,0,2.75.5,3,2.54,5.45,38.61-5.86,70.71-36.78,95.29C419,398.59,404.5,405.44,389,411.3Zm76.72-117.6H418.54c-3,38.58-9.62,76.3-23.86,112.62,7-3.1,13.86-6.21,20.41-9.9,17.07-9.62,31.22-22.33,40.74-39.72C466.65,337,469.18,315.88,465.76,293.7Z"/>
<path d="M290.82,333.23,274,336.93c-.47-1.69-1-3.32-1.37-5-1.45-5.79-2.84-11.6-4.34-17.37-.38-1.46-.34-2.19,1.39-2.67,9.76-2.65,19.48-5.44,29.22-8.19a3,3,0,0,1,.72-.15h21.8V409.32H290.82Zm2.8-3.67v77.19h24.5V306.4c-8.94.44-17.73-.95-26.35,2.08-6.69,2.35-13.63,4-20.64,6,1.59,6.48,3.13,12.72,4.71,19.14Z"/>
<path fill="#FFF"  d="M293.62,329.56l-17.78,4c-1.58-6.42-3.12-12.66-4.71-19.14,7-2,13.95-3.62,20.64-6,8.62-3,17.41-1.64,26.35-2.08V406.75h-24.5Z"/></svg>